<mxfile host="app.diagrams.net" modified="2020-12-05T11:56:10.301Z" agent="5.0 (Macintosh; Intel Mac OS X 10_14_6) AppleWebKit/537.36 (KHTML, like Gecko) Chrome/84.0.4147.105 Safari/537.36" etag="rZFsOi8ZBOmiamIu4iC_" version="13.10.9" type="github">
  <diagram name="Page-1" id="7e0a89b8-554c-2b80-1dc8-d5c74ca68de4">
    <mxGraphModel dx="2066" dy="1110" grid="1" gridSize="10" guides="1" tooltips="1" connect="1" arrows="1" fold="1" page="1" pageScale="1" pageWidth="1100" pageHeight="850" background="#ffffff" math="0" shadow="0">
      <root>
        <mxCell id="0" />
        <mxCell id="1" parent="0" />
        <mxCell id="bvHc1E0F6--pJfczG942-1" value="" style="rounded=0;whiteSpace=wrap;html=1;rotation=-90;" vertex="1" parent="1">
          <mxGeometry x="260" y="325" width="560" height="240" as="geometry" />
        </mxCell>
        <mxCell id="bvHc1E0F6--pJfczG942-12" style="edgeStyle=orthogonalEdgeStyle;rounded=0;orthogonalLoop=1;jettySize=auto;html=1;entryX=0.023;entryY=0.004;entryDx=0;entryDy=0;entryPerimeter=0;" edge="1" parent="1" source="bvHc1E0F6--pJfczG942-3" target="bvHc1E0F6--pJfczG942-1">
          <mxGeometry relative="1" as="geometry" />
        </mxCell>
        <mxCell id="bvHc1E0F6--pJfczG942-3" value="" style="pointerEvents=1;verticalLabelPosition=bottom;shadow=0;dashed=0;align=center;html=1;verticalAlign=top;shape=mxgraph.electrical.signal_sources.dc_source_3;rotation=90;" vertex="1" parent="1">
          <mxGeometry x="100" y="750" width="60" height="60" as="geometry" />
        </mxCell>
        <mxCell id="bvHc1E0F6--pJfczG942-7" value="5v" style="ellipse;whiteSpace=wrap;html=1;aspect=fixed;" vertex="1" parent="1">
          <mxGeometry x="420" y="700" width="20" height="20" as="geometry" />
        </mxCell>
        <mxCell id="bvHc1E0F6--pJfczG942-14" value="&lt;font size=&quot;1&quot;&gt;gnd&lt;/font&gt;" style="ellipse;whiteSpace=wrap;html=1;aspect=fixed;" vertex="1" parent="1">
          <mxGeometry x="420" y="670" width="20" height="20" as="geometry" />
        </mxCell>
      </root>
    </mxGraphModel>
  </diagram>
</mxfile>
